<svg width="168" height="102" viewBox="0 0 168 102" fill="none" xmlns="http://www.w3.org/2000/svg">
<rect x="2" y="2" width="166" height="100" rx="15.0512" fill="#592EBF"/>
<rect width="166" height="100" rx="15.05" fill="#C6B5ED"/>
<path d="M14.964 19.24V22H12.96V13.444H17.46C20.484 13.444 21.708 14.26 21.708 16.144C21.708 17.428 21.12 18.088 19.836 18.412C21.096 18.688 21.648 19.36 21.648 20.884V21.448C21.648 21.652 21.672 21.892 21.852 22H19.752C19.548 21.916 19.512 21.652 19.512 21.424V20.896C19.512 20.464 19.452 20.128 19.32 19.888C19.044 19.408 18.468 19.24 17.376 19.24H14.964ZM14.964 15.148V17.524H17.364C17.82 17.524 18.204 17.5 18.54 17.464C19.236 17.368 19.632 17.092 19.632 16.42V16.264C19.632 15.94 19.548 15.7 19.404 15.544C19.08 15.22 18.444 15.148 17.436 15.148H14.964ZM31.6773 19.948C30.9333 21.652 29.3493 22.228 27.0693 22.228C25.9773 22.228 25.1133 22.072 24.4533 21.784C23.1453 21.172 22.6293 20.092 22.6293 18.688C22.6293 17.992 22.7973 17.368 23.1333 16.792C23.8293 15.616 25.1613 14.86 27.2253 14.86C28.1853 14.86 28.9773 15.004 29.6733 15.304C31.0293 15.904 31.7613 17.008 31.7613 18.556V19.288H24.5613C24.8013 20.188 25.5693 20.656 27.2373 20.656C28.4973 20.656 29.0973 20.416 29.4333 19.948H31.6773ZM27.2853 16.42C25.7613 16.42 24.8973 16.936 24.6093 17.836H29.7453C29.5173 16.828 28.7613 16.42 27.2853 16.42ZM41.6223 22H33.1983V13.444H41.3703V15.136H35.1303V16.864H40.4103V18.556H35.1303V20.248H41.6223V22ZM44.9738 22H42.8978V15.112H44.6738L44.8418 16.612C45.3938 15.532 46.4258 14.86 47.9378 14.86C48.6578 14.86 49.2698 14.992 49.7858 15.28C50.7938 15.832 51.3458 16.852 51.3458 18.232V22H49.2818V18.724C49.2818 17.32 48.7778 16.504 47.2538 16.504C45.6578 16.504 44.9738 17.332 44.9738 18.952V22ZM61.6519 22.624C61.6519 23.152 61.4959 23.596 61.1959 23.968C60.5719 24.724 59.2879 25.132 57.1159 25.132H56.5879C55.5799 25.132 54.7759 25.084 54.1639 24.952C52.9639 24.712 52.4479 24.244 52.4479 23.536C52.4479 22.624 53.1079 22.144 54.8599 22C53.2519 21.988 52.4119 21.772 52.4119 20.74C52.4119 19.936 53.0479 19.324 54.8119 19.264C53.4799 19.072 52.7479 18.568 52.7479 17.38C52.7479 15.916 54.0679 14.968 56.8759 14.968H57.1519C57.6199 14.968 57.9799 14.944 58.2679 14.86C58.8319 14.728 59.0599 14.356 59.0599 13.516V13.42H61.3159V13.504C61.3159 14.368 61.1719 14.8 60.7159 15.004C60.2839 15.196 59.5039 15.208 58.2679 15.208C60.3799 15.34 61.2319 16.012 61.2319 17.38C61.2319 18.952 59.8999 19.624 57.1999 19.624H56.3839C55.7239 19.624 55.2439 19.636 54.9199 19.672C54.2959 19.732 54.1519 19.876 54.1519 20.116C54.1519 20.212 54.2119 20.308 54.3439 20.356C54.5959 20.464 55.2079 20.5 56.2999 20.5H58.1719C60.6199 20.5 61.6519 21.016 61.6519 22.564V22.624ZM56.9839 18.304C58.5799 18.304 59.2759 18.016 59.2759 17.356C59.2759 16.636 58.6759 16.36 57.1039 16.36H56.8639C55.3159 16.36 54.7759 16.66 54.7759 17.404C54.7759 18.124 55.4239 18.304 56.9839 18.304ZM57.3559 23.548C58.0039 23.548 58.4839 23.524 58.8199 23.44C59.5279 23.296 59.7559 23.044 59.7559 22.72V22.66C59.7559 22.516 59.7199 22.396 59.6359 22.3C59.4799 22.108 59.0239 22 57.9319 22H56.3119C55.1359 22 54.5359 22.192 54.5359 22.792V22.804C54.5359 23.404 55.2799 23.548 56.9239 23.548H57.3559ZM68.8403 20.368C68.2763 21.46 67.0043 22.228 65.0123 22.228C63.1163 22.228 62.0723 21.592 62.0723 20.272V20.26C62.0723 19.456 62.4083 18.856 63.1643 18.508C63.3923 18.4 63.6443 18.316 63.9203 18.232C64.4843 18.088 65.3003 17.992 66.7763 17.908C67.2923 17.872 67.6883 17.848 67.9643 17.8C68.5283 17.716 68.7203 17.56 68.7203 17.26V17.248C68.7203 17.092 68.6723 16.948 68.5403 16.804C68.3123 16.528 67.7723 16.336 66.7763 16.336C66.1763 16.336 65.7203 16.372 65.3843 16.468C64.6883 16.624 64.4003 16.96 64.3403 17.512H62.2403C62.4683 15.676 63.9443 14.872 66.5963 14.872C67.4963 14.872 68.2283 14.956 68.8403 15.112C70.0523 15.448 70.6763 16.216 70.6763 17.716V22H69.0203L68.8403 20.368ZM65.6243 20.788C66.2363 20.788 66.7643 20.68 67.2323 20.476C68.1803 20.068 68.7443 19.396 68.7443 18.7V18.652C68.5643 18.892 68.0843 19.06 66.9563 19.12C65.6363 19.18 65.0363 19.276 64.6643 19.456C64.3763 19.6 64.2323 19.804 64.2323 20.08V20.092C64.2323 20.548 64.6163 20.788 65.6243 20.788ZM80.9175 22.624C80.9175 23.152 80.7615 23.596 80.4615 23.968C79.8375 24.724 78.5535 25.132 76.3815 25.132H75.8535C74.8455 25.132 74.0415 25.084 73.4295 24.952C72.2295 24.712 71.7135 24.244 71.7135 23.536C71.7135 22.624 72.3735 22.144 74.1255 22C72.5175 21.988 71.6775 21.772 71.6775 20.74C71.6775 19.936 72.3135 19.324 74.0775 19.264C72.7455 19.072 72.0135 18.568 72.0135 17.38C72.0135 15.916 73.3335 14.968 76.1415 14.968H76.4175C76.8855 14.968 77.2455 14.944 77.5335 14.86C78.0975 14.728 78.3255 14.356 78.3255 13.516V13.42H80.5815V13.504C80.5815 14.368 80.4375 14.8 79.9815 15.004C79.5495 15.196 78.7695 15.208 77.5335 15.208C79.6455 15.34 80.4975 16.012 80.4975 17.38C80.4975 18.952 79.1655 19.624 76.4655 19.624H75.6495C74.9895 19.624 74.5095 19.636 74.1855 19.672C73.5615 19.732 73.4175 19.876 73.4175 20.116C73.4175 20.212 73.4775 20.308 73.6095 20.356C73.8615 20.464 74.4735 20.5 75.5655 20.5H77.4375C79.8855 20.5 80.9175 21.016 80.9175 22.564V22.624ZM76.2495 18.304C77.8455 18.304 78.5415 18.016 78.5415 17.356C78.5415 16.636 77.9415 16.36 76.3695 16.36H76.1295C74.5815 16.36 74.0415 16.66 74.0415 17.404C74.0415 18.124 74.6895 18.304 76.2495 18.304ZM76.6215 23.548C77.2695 23.548 77.7495 23.524 78.0855 23.44C78.7935 23.296 79.0215 23.044 79.0215 22.72V22.66C79.0215 22.516 78.9855 22.396 78.9015 22.3C78.7455 22.108 78.2895 22 77.1975 22H75.5775C74.4015 22 73.8015 22.192 73.8015 22.792V22.804C73.8015 23.404 74.5455 23.548 76.1895 23.548H76.6215ZM90.482 19.948C89.738 21.652 88.154 22.228 85.874 22.228C84.782 22.228 83.918 22.072 83.258 21.784C81.95 21.172 81.434 20.092 81.434 18.688C81.434 17.992 81.602 17.368 81.938 16.792C82.634 15.616 83.966 14.86 86.03 14.86C86.99 14.86 87.782 15.004 88.478 15.304C89.834 15.904 90.566 17.008 90.566 18.556V19.288H83.366C83.606 20.188 84.374 20.656 86.042 20.656C87.302 20.656 87.902 20.416 88.238 19.948H90.482ZM86.09 16.42C84.566 16.42 83.702 16.936 83.414 17.836H88.55C88.322 16.828 87.566 16.42 86.09 16.42Z" fill="#592EBF"/>
<path d="M134.005 97.0169L103 66.0122V38.9988H130.013L161 70.0218L134.005 97.0169ZM133.978 92.541L156.524 70.0218L128.696 42.1484H106.15V64.6676L133.978 92.541ZM114.016 53.1718C114.889 53.1718 115.634 52.8663 116.249 52.2552C116.865 51.6442 117.173 50.9022 117.173 50.0294C117.173 49.1564 116.867 48.4121 116.256 47.7964C115.645 47.1806 114.903 46.8727 114.03 46.8727C113.158 46.8727 112.413 47.1782 111.798 47.7892C111.182 48.4003 110.874 49.1422 110.874 50.0151C110.874 50.888 111.179 51.6323 111.79 52.2481C112.401 52.8639 113.143 53.1718 114.016 53.1718ZM134.495 82.8501L144.065 72.9169C144.521 72.4607 144.87 71.9297 145.11 71.324C145.35 70.7183 145.47 70.0501 145.47 69.3192C145.47 67.9786 144.994 66.8096 144.041 65.8123C143.089 64.8149 141.938 64.3162 140.589 64.3162C139.564 64.3162 138.553 64.5848 137.555 65.1218C136.557 65.6589 135.537 66.6098 134.495 67.9746C133.405 66.5855 132.374 65.6286 131.403 65.1036C130.431 64.5787 129.431 64.3162 128.402 64.3162C127.053 64.3162 125.902 64.8149 124.949 65.8123C123.997 66.8096 123.52 67.9786 123.52 69.3192C123.52 70.0501 123.641 70.7183 123.881 71.324C124.121 71.9297 124.469 72.4607 124.926 72.9169L134.495 82.8501Z" fill="#592EBF"/>
<path d="M17.72 35.22C17.65 35.58 17.53 35.9 17.34 36.19C16.96 36.78 16.33 37.15 15.34 37.15C13.56 37.15 12.54 36.08 12.54 33.78V33.22C12.54 30.94 13.71 29.77 15.65 29.77C17.37 29.77 18.39 30.67 18.51 32.28H17.5C17.39 31.33 16.85 30.65 15.64 30.65C14.23 30.65 13.54 31.5 13.54 33.26V33.75C13.53 35.48 14.25 36.26 15.59 36.26C16.06 36.26 16.43 36.17 16.71 35.97C17.27 35.59 17.51 34.94 17.52 34.27L15.48 34.26V33.42H18.53V37H17.79L17.72 35.22ZM25.3054 35.3C24.9754 36.48 24.0154 37.15 22.5954 37.15C20.6954 37.15 19.7454 36.03 19.7454 34.25V34.13C19.7454 33.53 19.8654 33.01 20.0954 32.55C20.5654 31.65 21.4454 31.13 22.6254 31.13C23.2554 31.13 23.7754 31.26 24.1754 31.53C24.9954 32.07 25.3854 32.98 25.3854 34.01V34.47H20.7054C20.7754 35.65 21.4554 36.33 22.6354 36.33C23.4654 36.33 24.0454 35.97 24.2554 35.3H25.3054ZM22.6354 31.92C21.5354 31.92 20.8354 32.59 20.7154 33.7H24.4154C24.3354 32.61 23.7354 31.92 22.6354 31.92ZM29.5495 37H28.9195C28.4095 37 28.0095 36.93 27.7295 36.8C27.1695 36.53 26.9695 35.93 26.9695 34.79V32.15H25.8495V31.32H26.3995C26.5695 31.32 26.6995 31.31 26.7895 31.27C26.9595 31.2 26.9995 31.01 27.0295 30.58C27.0295 30.53 27.0295 30.44 27.0395 30.33C27.0395 30.1 27.0495 29.86 27.0495 29.78H27.8695V31.29H29.5495V32.15H27.8695V34.65C27.8695 35.07 27.8995 35.37 27.9695 35.57C28.1195 35.99 28.4595 36.09 29.1395 36.09H29.5495V37ZM36.8347 37.15C35.7647 37.15 35.0547 36.57 34.7347 35.71L34.6347 37H33.8247V29.35H34.7647V32.52C35.1147 31.69 35.8247 31.13 36.8847 31.13C37.3847 31.13 37.8147 31.25 38.1947 31.48C38.9547 31.94 39.4147 32.8 39.4147 34.06V34.19C39.4147 34.81 39.3047 35.34 39.0947 35.78C38.6747 36.66 37.8947 37.15 36.8347 37.15ZM36.5647 36.28C37.7547 36.28 38.4247 35.52 38.4247 34.18V34.07C38.4247 32.76 37.6747 31.96 36.6047 31.96C36.2247 31.96 35.8947 32.06 35.6147 32.23C35.0547 32.59 34.7247 33.24 34.7247 34.03V34.11C34.7247 35.42 35.4247 36.28 36.5647 36.28ZM40.6211 37V31.29H41.4111L41.5411 32.71C41.7811 31.76 42.4311 31.25 43.6111 31.25H43.9611V32.23H43.4811C43.0011 32.23 42.6111 32.3 42.3411 32.45C41.7811 32.76 41.5811 33.35 41.5811 34.33V37H40.6211ZM48.9115 35.58C48.5115 36.46 47.6315 37.15 46.3615 37.15C45.1315 37.15 44.4915 36.55 44.4915 35.63C44.4915 35.03 44.7715 34.55 45.2315 34.27C45.3915 34.16 45.5515 34.09 45.7215 34.02C46.0715 33.9 46.5515 33.8 47.3115 33.69C48.3215 33.54 48.8715 33.45 48.8715 32.91C48.8715 32.29 48.4615 31.9 47.3915 31.9C46.2615 31.9 45.7115 32.45 45.6615 33.25H44.6715C44.7015 32.83 44.8315 32.47 45.0415 32.15C45.4815 31.51 46.2615 31.13 47.3515 31.13C49.1315 31.13 49.8115 31.88 49.8115 33.06V37H49.0215L48.9115 35.58ZM46.6615 36.38C47.3215 36.38 47.8715 36.12 48.2615 35.7C48.6615 35.28 48.8815 34.78 48.8815 34.3V33.88C48.6315 34.09 48.1515 34.2 47.5215 34.31C46.6515 34.44 46.2815 34.54 45.9615 34.75C45.6915 34.92 45.5515 35.17 45.5515 35.51C45.5515 36.05 45.9115 36.38 46.6615 36.38ZM52.2456 37H51.2656V31.29H52.0856L52.1856 32.59C52.4956 31.71 53.1856 31.13 54.2756 31.13C55.7456 31.13 56.5056 32.08 56.5056 33.53V37H55.5256V33.75C55.5256 32.68 55.0956 31.98 53.9856 31.98C52.8556 31.98 52.2456 32.79 52.2456 34.01V37ZM62.3648 35.66C62.0448 36.52 61.3248 37.13 60.2148 37.13C59.7148 37.13 59.2848 37.02 58.8948 36.79C58.1348 36.32 57.6848 35.44 57.6848 34.18V34.05C57.6848 33.43 57.7948 32.91 58.0048 32.47C58.4448 31.6 59.2448 31.14 60.2748 31.14C61.3048 31.14 62.0048 31.64 62.3348 32.43V29.35H63.2748V37H62.4748L62.3648 35.66ZM60.4748 36.28C60.8648 36.28 61.2048 36.18 61.4848 36.01C62.0648 35.65 62.3748 34.99 62.3748 34.16V34.09C62.3748 33.66 62.3048 33.3 62.1548 32.98C61.8648 32.34 61.3048 31.96 60.5448 31.96C59.3348 31.96 58.6848 32.77 58.6848 34.07V34.17C58.6848 35.54 59.4248 36.28 60.4748 36.28ZM72.3844 35.66C72.0644 36.52 71.3444 37.13 70.2344 37.13C69.7344 37.13 69.3044 37.02 68.9144 36.79C68.1544 36.32 67.7044 35.44 67.7044 34.18V34.05C67.7044 33.43 67.8144 32.91 68.0244 32.47C68.4644 31.6 69.2644 31.14 70.2944 31.14C71.3244 31.14 72.0244 31.64 72.3544 32.43V29.35H73.2944V37H72.4944L72.3844 35.66ZM70.4944 36.28C70.8844 36.28 71.2244 36.18 71.5044 36.01C72.0844 35.65 72.3944 34.99 72.3944 34.16V34.09C72.3944 33.66 72.3244 33.3 72.1744 32.98C71.8844 32.34 71.3244 31.96 70.5644 31.96C69.3544 31.96 68.7044 32.77 68.7044 34.07V34.17C68.7044 35.54 69.4444 36.28 70.4944 36.28ZM80.0515 35.3C79.7215 36.48 78.7615 37.15 77.3415 37.15C75.4415 37.15 74.4915 36.03 74.4915 34.25V34.13C74.4915 33.53 74.6115 33.01 74.8415 32.55C75.3115 31.65 76.1915 31.13 77.3715 31.13C78.0015 31.13 78.5215 31.26 78.9215 31.53C79.7415 32.07 80.1315 32.98 80.1315 34.01V34.47H75.4515C75.5215 35.65 76.2015 36.33 77.3815 36.33C78.2115 36.33 78.7915 35.97 79.0015 35.3H80.0515ZM77.3815 31.92C76.2815 31.92 75.5815 32.59 75.4615 33.7H79.1615C79.0815 32.61 78.4815 31.92 77.3815 31.92ZM85.4838 35.58C85.0838 36.46 84.2038 37.15 82.9338 37.15C81.7038 37.15 81.0638 36.55 81.0638 35.63C81.0638 35.03 81.3438 34.55 81.8038 34.27C81.9638 34.16 82.1238 34.09 82.2938 34.02C82.6438 33.9 83.1238 33.8 83.8838 33.69C84.8938 33.54 85.4438 33.45 85.4438 32.91C85.4438 32.29 85.0338 31.9 83.9638 31.9C82.8338 31.9 82.2838 32.45 82.2338 33.25H81.2438C81.2738 32.83 81.4038 32.47 81.6138 32.15C82.0538 31.51 82.8338 31.13 83.9238 31.13C85.7038 31.13 86.3838 31.88 86.3838 33.06V37H85.5938L85.4838 35.58ZM83.2337 36.38C83.8938 36.38 84.4438 36.12 84.8338 35.7C85.2338 35.28 85.4538 34.78 85.4538 34.3V33.88C85.2038 34.09 84.7238 34.2 84.0938 34.31C83.2238 34.44 82.8538 34.54 82.5338 34.75C82.2638 34.92 82.1238 35.17 82.1238 35.51C82.1238 36.05 82.4838 36.38 83.2337 36.38ZM87.8677 37V29.35H88.8377V37H87.8677ZM92.5779 37.15C90.9579 37.15 90.0279 36.46 89.8679 35.13H90.9179C91.0379 35.95 91.6979 36.32 92.5979 36.32C93.6579 36.32 94.0479 35.89 94.0479 35.35C94.0479 35.12 93.9679 34.96 93.8079 34.85C93.4779 34.62 92.9179 34.54 92.3179 34.46C91.7979 34.38 91.2579 34.28 90.8279 34.07C90.3979 33.84 90.1179 33.48 90.1179 32.86C90.1179 32.54 90.1979 32.25 90.3579 32C90.6979 31.46 91.3579 31.13 92.3879 31.13C93.9379 31.13 94.7379 31.83 94.8879 32.94H93.8979C93.8079 32.26 93.2979 31.92 92.3779 31.92C91.3979 31.92 91.0779 32.34 91.0779 32.81C91.0779 33.02 91.1579 33.19 91.3279 33.31C91.6679 33.52 92.2179 33.6 92.8179 33.69C93.3379 33.77 93.8779 33.87 94.3079 34.08C94.7379 34.31 95.0079 34.66 95.0079 35.29C95.0079 35.64 94.9179 35.95 94.7479 36.23C94.3979 36.79 93.7079 37.15 92.5779 37.15Z" fill="white"/>
</svg>
