<svg width="168" height="102" viewBox="0 0 168 102" fill="none" xmlns="http://www.w3.org/2000/svg">
<g clip-path="url(#clip0_10091_32323)">
<rect x="2" y="2" width="166" height="100" rx="15.0512" fill="#4971FD"/>
<rect width="166" height="100" rx="15.05" fill="#B5C5FF"/>
<path d="M14.964 19.24V22H12.96V13.444H17.46C20.484 13.444 21.708 14.26 21.708 16.144C21.708 17.428 21.12 18.088 19.836 18.412C21.096 18.688 21.648 19.36 21.648 20.884V21.448C21.648 21.652 21.672 21.892 21.852 22H19.752C19.548 21.916 19.512 21.652 19.512 21.424V20.896C19.512 20.464 19.452 20.128 19.32 19.888C19.044 19.408 18.468 19.24 17.376 19.24H14.964ZM14.964 15.148V17.524H17.364C17.82 17.524 18.204 17.5 18.54 17.464C19.236 17.368 19.632 17.092 19.632 16.42V16.264C19.632 15.94 19.548 15.7 19.404 15.544C19.08 15.22 18.444 15.148 17.436 15.148H14.964ZM31.6773 19.948C30.9333 21.652 29.3493 22.228 27.0693 22.228C25.9773 22.228 25.1133 22.072 24.4533 21.784C23.1453 21.172 22.6293 20.092 22.6293 18.688C22.6293 17.992 22.7973 17.368 23.1333 16.792C23.8293 15.616 25.1613 14.86 27.2253 14.86C28.1853 14.86 28.9773 15.004 29.6733 15.304C31.0293 15.904 31.7613 17.008 31.7613 18.556V19.288H24.5613C24.8013 20.188 25.5693 20.656 27.2373 20.656C28.4973 20.656 29.0973 20.416 29.4333 19.948H31.6773ZM27.2853 16.42C25.7613 16.42 24.8973 16.936 24.6093 17.836H29.7453C29.5173 16.828 28.7613 16.42 27.2853 16.42ZM43.0263 18.364C42.8943 19.168 42.6423 19.852 42.2223 20.428C41.4063 21.58 39.9783 22.24 37.7943 22.24C36.7863 22.24 35.9103 22.084 35.1543 21.784C33.6423 21.172 32.7783 19.9 32.7783 17.812V17.752C32.7783 16.792 32.9943 15.976 33.4503 15.304C34.3503 13.948 35.9583 13.228 37.9983 13.228C38.8863 13.228 39.6423 13.36 40.3383 13.612C41.7423 14.14 42.6543 15.184 42.9783 16.828H40.8063C40.6023 15.688 39.6783 15.04 38.0103 15.04C36.0303 15.04 34.8543 15.808 34.8543 17.764V17.788C34.8543 19.624 35.9703 20.416 37.9263 20.416C39.8343 20.416 40.6383 19.684 40.8303 18.364H43.0263ZM48.4811 22.228C47.3891 22.228 46.5131 22.084 45.8411 21.784C44.5211 21.208 43.9691 20.104 43.9691 18.604C43.9691 17.836 44.1611 17.176 44.5331 16.612C45.2891 15.484 46.6931 14.86 48.5411 14.86C49.4891 14.86 50.2811 15.004 50.9771 15.304C52.3571 15.904 53.1251 17.008 53.1251 18.604C53.1251 19.324 52.9691 19.948 52.6331 20.5C51.9851 21.592 50.6531 22.228 48.4811 22.228ZM48.5411 20.56C50.3771 20.56 51.0491 19.876 51.0491 18.604C51.0491 17.224 50.3171 16.504 48.5651 16.504C46.8731 16.504 46.0451 17.188 46.0451 18.604C46.0451 19.912 46.7891 20.56 48.5411 20.56ZM56.5047 22H54.4407V15.112H56.1927L56.3607 16.576C56.8287 15.568 57.7167 14.86 59.0847 14.86C60.5847 14.86 61.4607 15.556 61.8567 16.66C62.3247 15.568 63.2967 14.872 64.7247 14.872C65.4327 14.872 66.0207 15.016 66.4887 15.304C67.4247 15.904 67.8807 16.948 67.8807 18.328V22H65.8287V18.688C65.8287 18.232 65.7687 17.86 65.6727 17.536C65.4687 16.876 64.9527 16.504 63.9927 16.504C62.7567 16.504 62.2047 17.428 62.2047 18.808V22H60.1527V18.58C60.1527 18.172 60.1047 17.836 60.0087 17.512C59.8287 16.888 59.3727 16.504 58.3887 16.504C57.0567 16.504 56.5047 17.404 56.5047 18.904V22ZM71.5047 22H69.4407V15.112H71.1927L71.3607 16.576C71.8287 15.568 72.7167 14.86 74.0847 14.86C75.5847 14.86 76.4607 15.556 76.8567 16.66C77.3247 15.568 78.2967 14.872 79.7247 14.872C80.4327 14.872 81.0207 15.016 81.4887 15.304C82.4247 15.904 82.8807 16.948 82.8807 18.328V22H80.8287V18.688C80.8287 18.232 80.7687 17.86 80.6727 17.536C80.4687 16.876 79.9527 16.504 78.9927 16.504C77.7567 16.504 77.2047 17.428 77.2047 18.808V22H75.1527V18.58C75.1527 18.172 75.1047 17.836 75.0087 17.512C74.8287 16.888 74.3727 16.504 73.3887 16.504C72.0567 16.504 71.5047 17.404 71.5047 18.904V22ZM93.2007 19.948C92.4567 21.652 90.8727 22.228 88.5927 22.228C87.5007 22.228 86.6367 22.072 85.9767 21.784C84.6687 21.172 84.1527 20.092 84.1527 18.688C84.1527 17.992 84.3207 17.368 84.6567 16.792C85.3527 15.616 86.6847 14.86 88.7487 14.86C89.7087 14.86 90.5007 15.004 91.1967 15.304C92.5527 15.904 93.2847 17.008 93.2847 18.556V19.288H86.0847C86.3247 20.188 87.0927 20.656 88.7607 20.656C90.0207 20.656 90.6207 20.416 90.9567 19.948H93.2007ZM88.8087 16.42C87.2847 16.42 86.4207 16.936 86.1327 17.836H91.2687C91.0407 16.828 90.2847 16.42 88.8087 16.42ZM96.5948 22H94.5188V15.112H96.2948L96.4628 16.612C97.0148 15.532 98.0468 14.86 99.5588 14.86C100.279 14.86 100.891 14.992 101.407 15.28C102.415 15.832 102.967 16.852 102.967 18.232V22H100.903V18.724C100.903 17.32 100.399 16.504 98.8748 16.504C97.2788 16.504 96.5948 17.332 96.5948 18.952V22ZM111.343 20.692C110.827 21.676 109.783 22.204 108.175 22.204C107.431 22.204 106.771 22.084 106.171 21.844C104.983 21.364 104.239 20.332 104.239 18.616C104.239 17.824 104.395 17.164 104.731 16.6C105.391 15.496 106.603 14.884 108.259 14.884C109.591 14.884 110.647 15.34 111.247 16.24V12.88H113.239V22H111.487L111.343 20.692ZM108.787 20.56C110.491 20.56 111.319 19.912 111.319 18.604C111.319 17.248 110.407 16.504 108.799 16.504C107.047 16.504 106.315 17.26 106.315 18.616C106.315 19.948 107.035 20.56 108.787 20.56Z" fill="#436BF7"/>
<path fill-rule="evenodd" clip-rule="evenodd" d="M111.178 88.9093C105.711 83.4419 105.711 74.5776 111.178 69.1103L119.864 60.424L117.036 57.5956L108.35 66.2819C101.32 73.3113 101.32 84.7083 108.35 91.7377C115.379 98.7671 126.776 98.7671 133.806 91.7377L142.492 83.0514L139.663 80.223L130.977 88.9093C125.51 94.3766 116.646 94.3766 111.178 88.9093ZM126.29 53.9982L133.806 46.4829C139.273 41.0155 148.137 41.0155 153.605 46.4829C159.072 51.9502 159.072 60.8144 153.605 66.2817L146.089 73.7972L148.918 76.6256L156.433 69.1101C163.463 62.0806 163.462 50.6838 156.433 43.6544C149.404 36.625 138.007 36.625 130.977 43.6544L123.462 51.1698L126.29 53.9982ZM143.707 53.5529L121.079 76.1803L123.908 79.0087L146.535 56.3813L143.707 53.5529Z" fill="#4971FD"/>
<path d="M15.23 37.15C14.53 37.15 13.99 37.05 13.56 36.85C12.72 36.45 12.35 35.67 12.31 34.6H13.35C13.38 35.69 13.94 36.28 15.24 36.28C15.63 36.28 15.94 36.22 16.19 36.1C16.69 35.86 16.91 35.46 16.91 35.02C16.91 34.71 16.82 34.47 16.63 34.31C16.25 33.99 15.62 33.86 14.94 33.74C14.36 33.62 13.79 33.49 13.33 33.22C12.87 32.94 12.58 32.5 12.58 31.75C12.58 31.4 12.68 31.08 12.85 30.77C13.23 30.17 13.95 29.77 15.05 29.77C16.82 29.77 17.68 30.6 17.75 31.97H16.74C16.69 31.07 16.16 30.6 15.03 30.6C14.03 30.6 13.56 31.12 13.56 31.74C13.56 32.03 13.66 32.25 13.83 32.4C14.19 32.69 14.81 32.8 15.48 32.95C16.07 33.07 16.66 33.21 17.12 33.49C17.59 33.77 17.89 34.22 17.89 35C17.89 35.39 17.79 35.75 17.59 36.07C17.19 36.73 16.41 37.15 15.23 37.15ZM24.4363 35.3C24.1063 36.48 23.1463 37.15 21.7263 37.15C19.8263 37.15 18.8763 36.03 18.8763 34.25V34.13C18.8763 33.53 18.9963 33.01 19.2263 32.55C19.6963 31.65 20.5763 31.13 21.7563 31.13C22.3863 31.13 22.9063 31.26 23.3063 31.53C24.1263 32.07 24.5163 32.98 24.5163 34.01V34.47H19.8363C19.9063 35.65 20.5863 36.33 21.7663 36.33C22.5963 36.33 23.1763 35.97 23.3863 35.3H24.4363ZM21.7663 31.92C20.6663 31.92 19.9663 32.59 19.8463 33.7H23.5462C23.4663 32.61 22.8663 31.92 21.7663 31.92ZM25.729 37V29.35H26.699V37H25.729ZM28.2778 37V29.35H29.2478V37H28.2778ZM37.0007 37.15C35.9307 37.15 35.2207 36.57 34.9007 35.71L34.8007 37H33.9907V29.35H34.9307V32.52C35.2807 31.69 35.9907 31.13 37.0507 31.13C37.5507 31.13 37.9807 31.25 38.3607 31.48C39.1207 31.94 39.5807 32.8 39.5807 34.06V34.19C39.5807 34.81 39.4707 35.34 39.2607 35.78C38.8407 36.66 38.0607 37.15 37.0007 37.15ZM36.7307 36.28C37.9207 36.28 38.5907 35.52 38.5907 34.18V34.07C38.5907 32.76 37.8407 31.96 36.7707 31.96C36.3907 31.96 36.0607 32.06 35.7807 32.23C35.2207 32.59 34.8907 33.24 34.8907 34.03V34.11C34.8907 35.42 35.5907 36.28 36.7307 36.28ZM40.7871 37V31.29H41.5771L41.7071 32.71C41.9471 31.76 42.5971 31.25 43.7771 31.25H44.1271V32.23H43.6471C43.1671 32.23 42.7771 32.3 42.5071 32.45C41.9471 32.76 41.7471 33.35 41.7471 34.33V37H40.7871ZM49.0775 35.58C48.6775 36.46 47.7975 37.15 46.5275 37.15C45.2975 37.15 44.6575 36.55 44.6575 35.63C44.6575 35.03 44.9375 34.55 45.3975 34.27C45.5575 34.16 45.7175 34.09 45.8875 34.02C46.2375 33.9 46.7175 33.8 47.4775 33.69C48.4875 33.54 49.0375 33.45 49.0375 32.91C49.0375 32.29 48.6275 31.9 47.5575 31.9C46.4275 31.9 45.8775 32.45 45.8275 33.25H44.8375C44.8675 32.83 44.9975 32.47 45.2075 32.15C45.6475 31.51 46.4275 31.13 47.5175 31.13C49.2975 31.13 49.9775 31.88 49.9775 33.06V37H49.1875L49.0775 35.58ZM46.8275 36.38C47.4875 36.38 48.0375 36.12 48.4275 35.7C48.8275 35.28 49.0475 34.78 49.0475 34.3V33.88C48.7975 34.09 48.3175 34.2 47.6875 34.31C46.8175 34.44 46.4475 34.54 46.1275 34.75C45.8575 34.92 45.7175 35.17 45.7175 35.51C45.7175 36.05 46.0775 36.38 46.8275 36.38ZM52.4116 37H51.4316V31.29H52.2516L52.3516 32.59C52.6616 31.71 53.3516 31.13 54.4416 31.13C55.9116 31.13 56.6716 32.08 56.6716 33.53V37H55.6916V33.75C55.6916 32.68 55.2616 31.98 54.1516 31.98C53.0216 31.98 52.4116 32.79 52.4116 34.01V37ZM62.5309 35.66C62.2109 36.52 61.4909 37.13 60.3809 37.13C59.8809 37.13 59.4509 37.02 59.0609 36.79C58.3009 36.32 57.8509 35.44 57.8509 34.18V34.05C57.8509 33.43 57.9609 32.91 58.1709 32.47C58.6109 31.6 59.4109 31.14 60.4409 31.14C61.4709 31.14 62.1709 31.64 62.5009 32.43V29.35H63.4409V37H62.6409L62.5309 35.66ZM60.6409 36.28C61.0309 36.28 61.3709 36.18 61.6509 36.01C62.2309 35.65 62.5409 34.99 62.5409 34.16V34.09C62.5409 33.66 62.4709 33.3 62.3209 32.98C62.0309 32.34 61.4709 31.96 60.7109 31.96C59.5009 31.96 58.8509 32.77 58.8509 34.07V34.17C58.8509 35.54 59.5909 36.28 60.6409 36.28ZM70.198 35.3C69.868 36.48 68.908 37.15 67.488 37.15C65.588 37.15 64.638 36.03 64.638 34.25V34.13C64.638 33.53 64.758 33.01 64.988 32.55C65.458 31.65 66.338 31.13 67.518 31.13C68.148 31.13 68.668 31.26 69.068 31.53C69.888 32.07 70.278 32.98 70.278 34.01V34.47H65.598C65.668 35.65 66.348 36.33 67.528 36.33C68.358 36.33 68.938 35.97 69.148 35.3H70.198ZM67.528 31.92C66.428 31.92 65.728 32.59 65.608 33.7H69.308C69.228 32.61 68.628 31.92 67.528 31.92ZM75.9586 35.66C75.6386 36.52 74.9186 37.13 73.8086 37.13C73.3086 37.13 72.8786 37.02 72.4886 36.79C71.7286 36.32 71.2786 35.44 71.2786 34.18V34.05C71.2786 33.43 71.3886 32.91 71.5986 32.47C72.0386 31.6 72.8386 31.14 73.8686 31.14C74.8986 31.14 75.5986 31.64 75.9286 32.43V29.35H76.8686V37H76.0686L75.9586 35.66ZM74.0686 36.28C74.4586 36.28 74.7986 36.18 75.0786 36.01C75.6586 35.65 75.9686 34.99 75.9686 34.16V34.09C75.9686 33.66 75.8986 33.3 75.7486 32.98C75.4586 32.34 74.8986 31.96 74.1386 31.96C72.9286 31.96 72.2786 32.77 72.2786 34.07V34.17C72.2786 35.54 73.0186 36.28 74.0686 36.28ZM84.6181 37.13C83.5681 37.13 82.8881 36.62 82.5381 35.82V38.99H81.5981V31.29H82.3981L82.5081 32.58C82.8481 31.72 83.5481 31.13 84.6481 31.13C85.1681 31.13 85.6081 31.25 85.9881 31.48C86.7481 31.96 87.1881 32.85 87.1881 34.12V34.25C87.1881 34.87 87.0781 35.38 86.8681 35.81C86.4281 36.68 85.6481 37.13 84.6181 37.13ZM84.3381 36.29C85.5281 36.29 86.2081 35.53 86.2081 34.23V34.12C86.2081 32.75 85.4681 31.97 84.3781 31.97C83.9981 31.97 83.6681 32.07 83.3881 32.24C82.8281 32.62 82.4981 33.27 82.4981 34.1V34.17C82.4981 35.43 83.1981 36.29 84.3381 36.29ZM88.4043 37V31.29H89.1943L89.3243 32.71C89.5643 31.76 90.2143 31.25 91.3943 31.25H91.7443V32.23H91.2643C90.7843 32.23 90.3943 32.3 90.1243 32.45C89.5643 32.76 89.3643 33.35 89.3643 34.33V37H88.4043ZM95.1347 37.15C93.3147 37.15 92.2747 36.08 92.2747 34.24V34.11C92.2747 33.47 92.4047 32.95 92.6447 32.49C93.1447 31.61 94.0347 31.13 95.1347 31.13C95.6947 31.13 96.1847 31.25 96.6147 31.49C97.4847 31.96 97.9947 32.85 97.9947 34.11V34.24C97.9947 34.86 97.8747 35.37 97.6447 35.81C97.1647 36.68 96.3047 37.15 95.1347 37.15ZM95.1347 36.28C96.3247 36.28 97.0047 35.52 97.0047 34.22V34.11C97.0047 32.78 96.2447 31.97 95.1347 31.97C94.0347 31.97 93.2647 32.73 93.2647 34.11V34.22C93.2647 35.52 93.9547 36.28 95.1347 36.28ZM103.713 35.66C103.393 36.52 102.673 37.13 101.563 37.13C101.062 37.13 100.633 37.02 100.243 36.79C99.4825 36.32 99.0325 35.44 99.0325 34.18V34.05C99.0325 33.43 99.1425 32.91 99.3525 32.47C99.7925 31.6 100.593 31.14 101.623 31.14C102.653 31.14 103.353 31.64 103.683 32.43V29.35H104.623V37H103.823L103.713 35.66ZM101.823 36.28C102.213 36.28 102.553 36.18 102.833 36.01C103.413 35.65 103.723 34.99 103.723 34.16V34.09C103.723 33.66 103.653 33.3 103.503 32.98C103.213 32.34 102.653 31.96 101.893 31.96C100.683 31.96 100.032 32.77 100.032 34.07V34.17C100.032 35.54 100.773 36.28 101.823 36.28ZM110.111 35.77C109.821 36.59 109.141 37.13 108.121 37.13C106.701 37.13 106.001 36.21 106.001 34.75V31.29H106.971V34.51C106.971 35.54 107.361 36.26 108.421 36.26C109.451 36.26 110.051 35.44 110.051 34.26V31.29H111.021V37H110.211L110.111 35.77ZM115.056 37.15C113.246 37.15 112.206 36.08 112.206 34.24V34.11C112.206 33.47 112.336 32.95 112.586 32.49C113.086 31.61 113.976 31.13 115.066 31.13C116.576 31.13 117.636 31.87 117.806 33.46V33.48H116.796V33.46C116.636 32.44 116.016 31.97 115.076 31.97C113.976 31.97 113.206 32.73 113.206 34.11V34.22C113.206 35.52 113.896 36.28 115.066 36.28C116.056 36.28 116.636 35.78 116.806 34.79V34.78H117.816V34.8C117.646 36.42 116.586 37.15 115.056 37.15ZM122.059 37H121.429C120.919 37 120.519 36.93 120.239 36.8C119.679 36.53 119.479 35.93 119.479 34.79V32.15H118.359V31.32H118.909C119.079 31.32 119.209 31.31 119.299 31.27C119.469 31.2 119.509 31.01 119.539 30.58C119.539 30.53 119.539 30.44 119.549 30.33C119.549 30.1 119.559 29.86 119.559 29.78H120.379V31.29H122.059V32.15H120.379V34.65C120.379 35.07 120.409 35.37 120.479 35.57C120.629 35.99 120.969 36.09 121.649 36.09H122.059V37ZM125.42 37.15C123.8 37.15 122.87 36.46 122.71 35.13H123.76C123.88 35.95 124.54 36.32 125.44 36.32C126.5 36.32 126.89 35.89 126.89 35.35C126.89 35.12 126.81 34.96 126.65 34.85C126.32 34.62 125.76 34.54 125.16 34.46C124.64 34.38 124.1 34.28 123.67 34.07C123.24 33.84 122.96 33.48 122.96 32.86C122.96 32.54 123.04 32.25 123.2 32C123.54 31.46 124.2 31.13 125.23 31.13C126.78 31.13 127.58 31.83 127.73 32.94H126.74C126.65 32.26 126.14 31.92 125.22 31.92C124.24 31.92 123.92 32.34 123.92 32.81C123.92 33.02 124 33.19 124.17 33.31C124.51 33.52 125.06 33.6 125.66 33.69C126.18 33.77 126.72 33.87 127.15 34.08C127.58 34.31 127.85 34.66 127.85 35.29C127.85 35.64 127.76 35.95 127.59 36.23C127.24 36.79 126.55 37.15 125.42 37.15Z" fill="white"/>
</g>
<defs>
<clipPath id="clip0_10091_32323">
<rect width="168" height="102" fill="white"/>
</clipPath>
</defs>
</svg>
