<svg width="168" height="102" viewBox="0 0 168 102" fill="none" xmlns="http://www.w3.org/2000/svg">
<rect x="2" y="2" width="166" height="100" rx="15.0512" fill="#AB1AA1"/>
<rect width="166" height="100" rx="15.05" fill="#F4B8F0"/>
<path d="M14.964 19.24V22H12.96V13.444H17.46C20.484 13.444 21.708 14.26 21.708 16.144C21.708 17.428 21.12 18.088 19.836 18.412C21.096 18.688 21.648 19.36 21.648 20.884V21.448C21.648 21.652 21.672 21.892 21.852 22H19.752C19.548 21.916 19.512 21.652 19.512 21.424V20.896C19.512 20.464 19.452 20.128 19.32 19.888C19.044 19.408 18.468 19.24 17.376 19.24H14.964ZM14.964 15.148V17.524H17.364C17.82 17.524 18.204 17.5 18.54 17.464C19.236 17.368 19.632 17.092 19.632 16.42V16.264C19.632 15.94 19.548 15.7 19.404 15.544C19.08 15.22 18.444 15.148 17.436 15.148H14.964ZM31.6773 19.948C30.9333 21.652 29.3493 22.228 27.0693 22.228C25.9773 22.228 25.1133 22.072 24.4533 21.784C23.1453 21.172 22.6293 20.092 22.6293 18.688C22.6293 17.992 22.7973 17.368 23.1333 16.792C23.8293 15.616 25.1613 14.86 27.2253 14.86C28.1853 14.86 28.9773 15.004 29.6733 15.304C31.0293 15.904 31.7613 17.008 31.7613 18.556V19.288H24.5613C24.8013 20.188 25.5693 20.656 27.2373 20.656C28.4973 20.656 29.0973 20.416 29.4333 19.948H31.6773ZM27.2853 16.42C25.7613 16.42 24.8973 16.936 24.6093 17.836H29.7453C29.5173 16.828 28.7613 16.42 27.2853 16.42ZM43.0263 18.364C42.8943 19.168 42.6423 19.852 42.2223 20.428C41.4063 21.58 39.9783 22.24 37.7943 22.24C36.7863 22.24 35.9103 22.084 35.1543 21.784C33.6423 21.172 32.7783 19.9 32.7783 17.812V17.752C32.7783 16.792 32.9943 15.976 33.4503 15.304C34.3503 13.948 35.9583 13.228 37.9983 13.228C38.8863 13.228 39.6423 13.36 40.3383 13.612C41.7423 14.14 42.6543 15.184 42.9783 16.828H40.8063C40.6023 15.688 39.6783 15.04 38.0103 15.04C36.0303 15.04 34.8543 15.808 34.8543 17.764V17.788C34.8543 19.624 35.9703 20.416 37.9263 20.416C39.8343 20.416 40.6383 19.684 40.8303 18.364H43.0263ZM44.2571 22V15.112H46.0211L46.2491 17.032C46.6211 15.796 47.4611 15.04 49.0571 15.04H49.9331V17.032H49.0091C48.2891 17.032 47.7371 17.104 47.3531 17.284C46.5851 17.62 46.3331 18.364 46.3331 19.72V22H44.2571ZM59.6148 19.948C58.8708 21.652 57.2868 22.228 55.0068 22.228C53.9148 22.228 53.0508 22.072 52.3908 21.784C51.0828 21.172 50.5668 20.092 50.5668 18.688C50.5668 17.992 50.7348 17.368 51.0708 16.792C51.7668 15.616 53.0988 14.86 55.1628 14.86C56.1228 14.86 56.9148 15.004 57.6108 15.304C58.9668 15.904 59.6988 17.008 59.6988 18.556V19.288H52.4988C52.7388 20.188 53.5068 20.656 55.1748 20.656C56.4348 20.656 57.0348 20.416 57.3708 19.948H59.6148ZM55.2228 16.42C53.6988 16.42 52.8348 16.936 52.5468 17.836H57.6828C57.4548 16.828 56.6988 16.42 55.2228 16.42ZM67.4224 20.368C66.8584 21.46 65.5864 22.228 63.5944 22.228C61.6984 22.228 60.6544 21.592 60.6544 20.272V20.26C60.6544 19.456 60.9904 18.856 61.7464 18.508C61.9744 18.4 62.2264 18.316 62.5024 18.232C63.0664 18.088 63.8824 17.992 65.3584 17.908C65.8744 17.872 66.2704 17.848 66.5464 17.8C67.1104 17.716 67.3024 17.56 67.3024 17.26V17.248C67.3024 17.092 67.2544 16.948 67.1224 16.804C66.8944 16.528 66.3544 16.336 65.3584 16.336C64.7584 16.336 64.3024 16.372 63.9664 16.468C63.2704 16.624 62.9824 16.96 62.9224 17.512H60.8224C61.0504 15.676 62.5264 14.872 65.1784 14.872C66.0784 14.872 66.8104 14.956 67.4224 15.112C68.6344 15.448 69.2584 16.216 69.2584 17.716V22H67.6024L67.4224 20.368ZM64.2064 20.788C64.8184 20.788 65.3464 20.68 65.8144 20.476C66.7624 20.068 67.3264 19.396 67.3264 18.7V18.652C67.1464 18.892 66.6664 19.06 65.5384 19.12C64.2184 19.18 63.6184 19.276 63.2464 19.456C62.9584 19.6 62.8144 19.804 62.8144 20.08V20.092C62.8144 20.548 63.1984 20.788 64.2064 20.788ZM76.8023 22H75.2063C74.3543 22 73.7063 21.88 73.2383 21.676C72.2903 21.22 71.9543 20.272 71.9543 18.604V16.84H70.0343V15.208C70.4663 15.208 71.0063 15.208 71.3543 15.16C71.7863 15.076 71.9423 14.908 72.0743 14.512C72.1823 14.164 72.1943 13.6 72.1823 13.228H73.8863V15.112H76.8023V16.84H73.8863V18.268C73.8863 19.156 73.9463 19.66 74.2223 19.912C74.4743 20.188 74.9423 20.236 75.7463 20.236H76.8023V22ZM86.6968 19.948C85.9528 21.652 84.3688 22.228 82.0888 22.228C80.9968 22.228 80.1328 22.072 79.4728 21.784C78.1648 21.172 77.6488 20.092 77.6488 18.688C77.6488 17.992 77.8168 17.368 78.1528 16.792C78.8488 15.616 80.1808 14.86 82.2448 14.86C83.2048 14.86 83.9968 15.004 84.6928 15.304C86.0488 15.904 86.7808 17.008 86.7808 18.556V19.288H79.5808C79.8208 20.188 80.5888 20.656 82.2568 20.656C83.5168 20.656 84.1168 20.416 84.4528 19.948H86.6968ZM82.3048 16.42C80.7808 16.42 79.9168 16.936 79.6288 17.836H84.7648C84.5368 16.828 83.7808 16.42 82.3048 16.42Z" fill="#AB1AA1"/>
<path d="M106.33 96.5474V87.8522L152.712 39.4536L161 48.1087L114.656 96.5474H106.33ZM109.661 93.0693H113.235L148.389 56.3758L146.634 54.4561L144.796 52.6235L109.661 89.3371V93.0693ZM146.634 54.4561L144.796 52.6235L148.389 56.3758L146.634 54.4561ZM152.187 86.1132C152.187 84.1156 151.543 82.3409 150.253 80.7891C148.964 79.2373 147.089 77.9554 144.63 76.9432L142.087 79.5985C144.218 80.3566 145.879 81.2952 147.07 82.4144C148.261 83.5336 148.857 84.7665 148.857 86.1132C148.857 88.0707 147.641 89.7194 145.209 91.0594C142.778 92.3993 139.553 93.0693 135.535 93.0693V96.5474C140.07 96.5474 143.979 95.631 147.262 93.7984C150.545 91.9657 152.187 89.4039 152.187 86.1132ZM108.373 74.0202L110.807 71.4117C109.3 70.7696 108.177 70.0762 107.438 69.3315C106.7 68.5869 106.33 67.8043 106.33 66.9839C106.33 65.8869 106.972 64.8313 108.255 63.8168C109.538 62.8024 111.847 61.555 115.182 60.0745C119.336 58.224 122.23 56.5262 123.863 54.9812C125.496 53.4361 126.313 51.6403 126.313 49.5936C126.313 47.0028 125.355 44.9059 123.44 43.303C121.525 41.6999 118.875 40.8984 115.489 40.8984C113.474 40.8984 111.359 41.3911 109.145 42.3766C106.931 43.362 105.128 44.6752 103.737 46.3162L105.882 48.6505C107.142 47.2904 108.665 46.2381 110.452 45.4934C112.239 44.7488 113.918 44.3765 115.489 44.3765C117.889 44.3765 119.737 44.8558 121.035 45.8145C122.333 46.7732 122.982 48.0329 122.982 49.5936C122.982 50.8064 122.386 51.9022 121.192 52.8809C119.999 53.8597 117.555 55.1896 113.862 56.8707C109.738 58.806 106.896 60.4959 105.338 61.9407C103.779 63.3854 103 65.0665 103 66.9839C103 68.3974 103.452 69.6961 104.355 70.88C105.258 72.0639 106.597 73.1106 108.373 74.0202Z" fill="#AB1AA1"/>
<path d="M18.65 34.44C18.48 36.13 17.52 37.15 15.62 37.15C13.64 37.15 12.54 36 12.54 33.75V33.23C12.54 30.99 13.7 29.77 15.66 29.77C17.38 29.77 18.41 30.62 18.6 32.34H17.58C17.45 31.25 16.84 30.65 15.66 30.65C14.31 30.65 13.54 31.56 13.54 33.28V33.71C13.54 35.34 14.28 36.22 15.66 36.22C16.87 36.22 17.49 35.54 17.61 34.44H18.65ZM19.8203 37V31.29H20.6103L20.7403 32.71C20.9803 31.76 21.6303 31.25 22.8103 31.25H23.1603V32.23H22.6803C22.2003 32.23 21.8103 32.3 21.5403 32.45C20.9803 32.76 20.7803 33.35 20.7803 34.33V37H19.8203ZM29.2507 35.3C28.9207 36.48 27.9607 37.15 26.5407 37.15C24.6407 37.15 23.6907 36.03 23.6907 34.25V34.13C23.6907 33.53 23.8107 33.01 24.0407 32.55C24.5107 31.65 25.3907 31.13 26.5707 31.13C27.2007 31.13 27.7207 31.26 28.1207 31.53C28.9407 32.07 29.3307 32.98 29.3307 34.01V34.47H24.6507C24.7207 35.65 25.4007 36.33 26.5807 36.33C27.4107 36.33 27.9907 35.97 28.2007 35.3H29.2507ZM26.5807 31.92C25.4807 31.92 24.7807 32.59 24.6607 33.7H28.3607C28.2807 32.61 27.6807 31.92 26.5807 31.92ZM34.683 35.58C34.283 36.46 33.403 37.15 32.133 37.15C30.903 37.15 30.263 36.55 30.263 35.63C30.263 35.03 30.543 34.55 31.003 34.27C31.163 34.16 31.323 34.09 31.493 34.02C31.843 33.9 32.323 33.8 33.083 33.69C34.093 33.54 34.643 33.45 34.643 32.91C34.643 32.29 34.233 31.9 33.163 31.9C32.033 31.9 31.483 32.45 31.433 33.25H30.443C30.473 32.83 30.603 32.47 30.813 32.15C31.253 31.51 32.033 31.13 33.123 31.13C34.903 31.13 35.583 31.88 35.583 33.06V37H34.793L34.683 35.58ZM32.433 36.38C33.093 36.38 33.643 36.12 34.033 35.7C34.433 35.28 34.653 34.78 34.653 34.3V33.88C34.403 34.09 33.923 34.2 33.293 34.31C32.423 34.44 32.053 34.54 31.733 34.75C31.463 34.92 31.323 35.17 31.323 35.51C31.323 36.05 31.683 36.38 32.433 36.38ZM40.0476 37H39.4176C38.9076 37 38.5076 36.93 38.2276 36.8C37.6676 36.53 37.4676 35.93 37.4676 34.79V32.15H36.3476V31.32H36.8976C37.0676 31.32 37.1976 31.31 37.2876 31.27C37.4576 31.2 37.4976 31.01 37.5276 30.58C37.5276 30.53 37.5276 30.44 37.5376 30.33C37.5376 30.1 37.5476 29.86 37.5476 29.78H38.3676V31.29H40.0476V32.15H38.3676V34.65C38.3676 35.07 38.3976 35.37 38.4676 35.57C38.6176 35.99 38.9576 36.09 39.6376 36.09H40.0476V37ZM46.2722 35.3C45.9422 36.48 44.9822 37.15 43.5622 37.15C41.6622 37.15 40.7122 36.03 40.7122 34.25V34.13C40.7122 33.53 40.8322 33.01 41.0622 32.55C41.5322 31.65 42.4122 31.13 43.5922 31.13C44.2222 31.13 44.7422 31.26 45.1422 31.53C45.9622 32.07 46.3522 32.98 46.3522 34.01V34.47H41.6722C41.7422 35.65 42.4222 36.33 43.6022 36.33C44.4322 36.33 45.0122 35.97 45.2222 35.3H46.2722ZM43.6022 31.92C42.5022 31.92 41.8022 32.59 41.6822 33.7H45.3822C45.3022 32.61 44.7022 31.92 43.6022 31.92ZM56.8776 37.09C56.2176 37.09 55.6076 36.86 55.0176 36.43C54.3376 36.87 53.5576 37.13 52.7276 37.13C52.2676 37.13 51.8776 37.06 51.5176 36.93C50.7976 36.66 50.3476 36.12 50.3476 35.22C50.3476 34.82 50.4376 34.48 50.6376 34.21C51.0176 33.66 51.6776 33.32 52.4176 33.03C52.2276 32.53 52.1176 32.07 52.1176 31.65C52.1176 31.23 52.1976 30.9 52.3576 30.62C52.6976 30.06 53.2676 29.77 53.9676 29.77C54.9976 29.77 55.6076 30.44 55.6076 31.31C55.6076 32.31 54.8576 32.86 53.5176 33.4C53.6776 33.69 53.8976 34 54.1476 34.34C54.4576 34.76 54.7676 35.1 55.0776 35.39C55.3876 35.12 55.6576 34.82 55.8976 34.47C56.3976 33.77 56.7276 33 56.8876 32.29H57.7976C57.5076 33.59 56.7676 34.94 55.7176 35.89C56.1476 36.16 56.5376 36.29 56.9176 36.29C57.3176 36.29 57.5376 36.18 57.7876 35.98V36.85C57.5876 37.01 57.2976 37.09 56.8776 37.09ZM52.9476 31.61C52.9476 31.94 53.0276 32.32 53.1876 32.72C54.2376 32.32 54.7776 32 54.7776 31.3C54.7776 30.83 54.4676 30.49 53.9576 30.49C53.3976 30.49 52.9476 30.9 52.9476 31.61ZM52.8276 36.33C53.3876 36.33 53.9176 36.17 54.3876 35.89C54.0676 35.57 53.7376 35.19 53.4176 34.76C53.1676 34.41 52.9376 34.06 52.7476 33.73C51.8876 34.08 51.3276 34.4 51.3176 35.12C51.3176 35.99 51.9676 36.33 52.8276 36.33ZM64.2478 37.15C62.6278 37.15 61.6978 36.46 61.5378 35.13H62.5878C62.7078 35.95 63.3678 36.32 64.2678 36.32C65.3278 36.32 65.7178 35.89 65.7178 35.35C65.7178 35.12 65.6378 34.96 65.4778 34.85C65.1478 34.62 64.5878 34.54 63.9878 34.46C63.4678 34.38 62.9278 34.28 62.4978 34.07C62.0678 33.84 61.7878 33.48 61.7878 32.86C61.7878 32.54 61.8678 32.25 62.0278 32C62.3678 31.46 63.0278 31.13 64.0578 31.13C65.6078 31.13 66.4078 31.83 66.5578 32.94H65.5678C65.4778 32.26 64.9678 31.92 64.0478 31.92C63.0678 31.92 62.7478 32.34 62.7478 32.81C62.7478 33.02 62.8278 33.19 62.9978 33.31C63.3378 33.52 63.8878 33.6 64.4878 33.69C65.0078 33.77 65.5478 33.87 65.9778 34.08C66.4078 34.31 66.6778 34.66 66.6778 35.29C66.6778 35.64 66.5878 35.95 66.4178 36.23C66.0678 36.79 65.3778 37.15 64.2478 37.15ZM73.1374 35.3C72.8074 36.48 71.8474 37.15 70.4274 37.15C68.5274 37.15 67.5774 36.03 67.5774 34.25V34.13C67.5774 33.53 67.6974 33.01 67.9274 32.55C68.3974 31.65 69.2774 31.13 70.4574 31.13C71.0874 31.13 71.6074 31.26 72.0074 31.53C72.8274 32.07 73.2174 32.98 73.2174 34.01V34.47H68.5374C68.6074 35.65 69.2874 36.33 70.4674 36.33C71.2974 36.33 71.8774 35.97 72.0874 35.3H73.1374ZM70.4674 31.92C69.3674 31.92 68.6674 32.59 68.5474 33.7H72.2474C72.1674 32.61 71.5674 31.92 70.4674 31.92ZM74.4302 37V29.35H75.4002V37H74.4302ZM76.979 37V29.35H77.949V37H76.979ZM85.2419 37.15C83.4319 37.15 82.3919 36.08 82.3919 34.24V34.11C82.3919 33.47 82.5219 32.95 82.7719 32.49C83.2719 31.61 84.1619 31.13 85.2519 31.13C86.7619 31.13 87.8219 31.87 87.9919 33.46V33.48H86.9819V33.46C86.8219 32.44 86.2019 31.97 85.2619 31.97C84.1619 31.97 83.3919 32.73 83.3919 34.11V34.22C83.3919 35.52 84.0819 36.28 85.2519 36.28C86.2419 36.28 86.8219 35.78 86.9919 34.79V34.78H88.0019V34.8C87.8319 36.42 86.7719 37.15 85.2419 37.15ZM93.2067 35.77C92.9167 36.59 92.2367 37.13 91.2167 37.13C89.7967 37.13 89.0967 36.21 89.0967 34.75V31.29H90.0667V34.51C90.0667 35.54 90.4567 36.26 91.5167 36.26C92.5467 36.26 93.1467 35.44 93.1467 34.26V31.29H94.1167V37H93.3067L93.2067 35.77ZM97.822 37.15C96.202 37.15 95.272 36.46 95.112 35.13H96.162C96.282 35.95 96.942 36.32 97.842 36.32C98.902 36.32 99.292 35.89 99.292 35.35C99.292 35.12 99.212 34.96 99.052 34.85C98.722 34.62 98.162 34.54 97.562 34.46C97.042 34.38 96.502 34.28 96.072 34.07C95.642 33.84 95.362 33.48 95.362 32.86C95.362 32.54 95.442 32.25 95.602 32C95.942 31.46 96.602 31.13 97.632 31.13C99.182 31.13 99.982 31.83 100.132 32.94H99.142C99.052 32.26 98.542 31.92 97.622 31.92C96.642 31.92 96.322 32.34 96.322 32.81C96.322 33.02 96.402 33.19 96.572 33.31C96.912 33.52 97.462 33.6 98.062 33.69C98.582 33.77 99.122 33.87 99.552 34.08C99.982 34.31 100.252 34.66 100.252 35.29C100.252 35.64 100.162 35.95 99.992 36.23C99.642 36.79 98.952 37.15 97.822 37.15ZM104.432 37H103.802C103.292 37 102.892 36.93 102.612 36.8C102.052 36.53 101.852 35.93 101.852 34.79V32.15H100.732V31.32H101.282C101.452 31.32 101.582 31.31 101.672 31.27C101.842 31.2 101.882 31.01 101.912 30.58C101.912 30.53 101.912 30.44 101.922 30.33C101.922 30.1 101.932 29.86 101.932 29.78H102.752V31.29H104.432V32.15H102.752V34.65C102.752 35.07 102.782 35.37 102.852 35.57C103.002 35.99 103.342 36.09 104.022 36.09H104.432V37ZM107.957 37.15C106.137 37.15 105.097 36.08 105.097 34.24V34.11C105.097 33.47 105.227 32.95 105.467 32.49C105.967 31.61 106.857 31.13 107.957 31.13C108.517 31.13 109.007 31.25 109.437 31.49C110.307 31.96 110.817 32.85 110.817 34.11V34.24C110.817 34.86 110.697 35.37 110.467 35.81C109.987 36.68 109.127 37.15 107.957 37.15ZM107.957 36.28C109.147 36.28 109.827 35.52 109.827 34.22V34.11C109.827 32.78 109.067 31.97 107.957 31.97C106.857 31.97 106.087 32.73 106.087 34.11V34.22C106.087 35.52 106.777 36.28 107.957 36.28ZM113.007 37H112.037V31.29H112.857L112.947 32.44C113.237 31.65 113.887 31.13 114.847 31.13C115.907 31.13 116.497 31.63 116.737 32.46C117.007 31.63 117.677 31.13 118.677 31.13C120.067 31.13 120.787 32.02 120.787 33.48V37H119.817V33.72C119.817 32.69 119.407 31.98 118.357 31.98C117.367 31.98 116.907 32.69 116.907 33.67V37H115.947V33.65C115.947 33.34 115.897 33.07 115.817 32.82C115.627 32.31 115.247 31.98 114.537 31.98C113.537 31.98 113.007 32.76 113.007 33.91V37ZM13.72 49H12.75V43.29H13.57L13.66 44.44C13.95 43.65 14.6 43.13 15.56 43.13C16.62 43.13 17.21 43.63 17.45 44.46C17.72 43.63 18.39 43.13 19.39 43.13C20.78 43.13 21.5 44.02 21.5 45.48V49H20.53V45.72C20.53 44.69 20.12 43.98 19.07 43.98C18.08 43.98 17.62 44.69 17.62 45.67V49H16.66V45.65C16.66 45.34 16.61 45.07 16.53 44.82C16.34 44.31 15.96 43.98 15.25 43.98C14.25 43.98 13.72 44.76 13.72 45.91V49ZM28.2253 47.3C27.8953 48.48 26.9353 49.15 25.5153 49.15C23.6153 49.15 22.6653 48.03 22.6653 46.25V46.13C22.6653 45.53 22.7853 45.01 23.0153 44.55C23.4853 43.65 24.3653 43.13 25.5453 43.13C26.1753 43.13 26.6953 43.26 27.0953 43.53C27.9153 44.07 28.3053 44.98 28.3053 46.01V46.47H23.6253C23.6953 47.65 24.3753 48.33 25.5553 48.33C26.3853 48.33 26.9653 47.97 27.1753 47.3H28.2253ZM25.5553 43.92C24.4553 43.92 23.7553 44.59 23.6353 45.7H27.3353C27.2553 44.61 26.6553 43.92 25.5553 43.92ZM29.4883 49V43.29H30.2783L30.4083 44.71C30.6483 43.76 31.2983 43.25 32.4783 43.25H32.8283V44.23H32.3483C31.8683 44.23 31.4783 44.3 31.2083 44.45C30.6483 44.76 30.4483 45.35 30.4483 46.33V49H29.4883ZM36.2087 49.15C34.3987 49.15 33.3587 48.08 33.3587 46.24V46.11C33.3587 45.47 33.4887 44.95 33.7387 44.49C34.2387 43.61 35.1287 43.13 36.2187 43.13C37.7287 43.13 38.7887 43.87 38.9587 45.46V45.48H37.9487V45.46C37.7887 44.44 37.1687 43.97 36.2287 43.97C35.1287 43.97 34.3587 44.73 34.3587 46.11V46.22C34.3587 47.52 35.0487 48.28 36.2187 48.28C37.2087 48.28 37.7887 47.78 37.9587 46.79V46.78H38.9687V46.8C38.7987 48.42 37.7387 49.15 36.2087 49.15ZM41.1023 49H40.1723V41.35H41.1023V44.44C41.4523 43.65 42.1523 43.13 43.1723 43.13C44.6423 43.13 45.3623 44.05 45.3623 45.51V49H44.3923V45.75C44.3923 44.7 43.9523 43.98 42.8223 43.98C41.7223 43.98 41.1023 44.81 41.1023 46V49ZM50.8841 47.58C50.4841 48.46 49.6041 49.15 48.3341 49.15C47.1041 49.15 46.4641 48.55 46.4641 47.63C46.4641 47.03 46.7441 46.55 47.2041 46.27C47.3641 46.16 47.5241 46.09 47.6941 46.02C48.0441 45.9 48.5241 45.8 49.2841 45.69C50.2941 45.54 50.8441 45.45 50.8441 44.91C50.8441 44.29 50.4341 43.9 49.3641 43.9C48.2341 43.9 47.6841 44.45 47.6341 45.25H46.6441C46.6741 44.83 46.8041 44.47 47.0141 44.15C47.4541 43.51 48.2341 43.13 49.3241 43.13C51.1041 43.13 51.7841 43.88 51.7841 45.06V49H50.9941L50.8841 47.58ZM48.6341 48.38C49.2941 48.38 49.8441 48.12 50.2341 47.7C50.6341 47.28 50.8541 46.78 50.8541 46.3V45.88C50.6041 46.09 50.1241 46.2 49.4941 46.31C48.6241 46.44 48.2541 46.54 47.9341 46.75C47.6641 46.92 47.5241 47.17 47.5241 47.51C47.5241 48.05 47.8841 48.38 48.6341 48.38ZM54.2183 49H53.2383V43.29H54.0583L54.1583 44.59C54.4683 43.71 55.1583 43.13 56.2483 43.13C57.7183 43.13 58.4783 44.08 58.4783 45.53V49H57.4983V45.75C57.4983 44.68 57.0683 43.98 55.9583 43.98C54.8283 43.98 54.2183 44.79 54.2183 46.01V49ZM64.3375 47.66C64.0175 48.52 63.2975 49.13 62.1875 49.13C61.6875 49.13 61.2575 49.02 60.8675 48.79C60.1075 48.32 59.6575 47.44 59.6575 46.18V46.05C59.6575 45.43 59.7675 44.91 59.9775 44.47C60.4175 43.6 61.2175 43.14 62.2475 43.14C63.2775 43.14 63.9775 43.64 64.3075 44.43V41.35H65.2475V49H64.4475L64.3375 47.66ZM62.4475 48.28C62.8375 48.28 63.1775 48.18 63.4575 48.01C64.0375 47.65 64.3475 46.99 64.3475 46.16V46.09C64.3475 45.66 64.2775 45.3 64.1275 44.98C63.8375 44.34 63.2775 43.96 62.5175 43.96C61.3075 43.96 60.6575 44.77 60.6575 46.07V46.17C60.6575 47.54 61.3975 48.28 62.4475 48.28ZM67.2839 42.56C66.7839 42.56 66.5939 42.38 66.5939 41.87C66.5939 41.36 66.8239 41.18 67.2839 41.18C67.7439 41.18 67.9639 41.36 67.9639 41.87C67.9639 42.37 67.7439 42.56 67.2839 42.56ZM66.7739 49V43.29H67.7639V49H66.7739ZM71.5134 49.15C69.8934 49.15 68.9634 48.46 68.8034 47.13H69.8534C69.9734 47.95 70.6334 48.32 71.5334 48.32C72.5934 48.32 72.9834 47.89 72.9834 47.35C72.9834 47.12 72.9034 46.96 72.7434 46.85C72.4134 46.62 71.8534 46.54 71.2534 46.46C70.7334 46.38 70.1934 46.28 69.7634 46.07C69.3334 45.84 69.0534 45.48 69.0534 44.86C69.0534 44.54 69.1334 44.25 69.2934 44C69.6334 43.46 70.2934 43.13 71.3234 43.13C72.8734 43.13 73.6734 43.83 73.8234 44.94H72.8334C72.7434 44.26 72.2334 43.92 71.3134 43.92C70.3334 43.92 70.0134 44.34 70.0134 44.81C70.0134 45.02 70.0934 45.19 70.2634 45.31C70.6034 45.52 71.1534 45.6 71.7534 45.69C72.2734 45.77 72.8134 45.87 73.2434 46.08C73.6734 46.31 73.9434 46.66 73.9434 47.29C73.9434 47.64 73.8534 47.95 73.6834 48.23C73.3334 48.79 72.6434 49.15 71.5134 49.15ZM80.403 47.3C80.073 48.48 79.113 49.15 77.693 49.15C75.793 49.15 74.843 48.03 74.843 46.25V46.13C74.843 45.53 74.963 45.01 75.193 44.55C75.663 43.65 76.543 43.13 77.723 43.13C78.353 43.13 78.873 43.26 79.273 43.53C80.093 44.07 80.483 44.98 80.483 46.01V46.47H75.803C75.873 47.65 76.553 48.33 77.733 48.33C78.563 48.33 79.143 47.97 79.353 47.3H80.403ZM77.733 43.92C76.633 43.92 75.933 44.59 75.813 45.7H79.513C79.433 44.61 78.833 43.92 77.733 43.92Z" fill="white"/>
</svg>
