<svg width="168" height="102" viewBox="0 0 168 102" fill="none" xmlns="http://www.w3.org/2000/svg">
<rect x="2" y="2" width="166" height="100" rx="15.0512" fill="#FF487F"/>
<g clip-path="url(#clip0_10091_32349)">
<rect width="166" height="100" rx="15.05" fill="#FFA3BF"/>
<path d="M15.708 23V19.484L11.844 14.444H14.316L16.8 17.852L19.488 14.444H21.948L17.808 19.52V23H15.708ZM25.1374 23.228C24.0454 23.228 23.1694 23.084 22.4974 22.784C21.1774 22.208 20.6254 21.104 20.6254 19.604C20.6254 18.836 20.8174 18.176 21.1894 17.612C21.9454 16.484 23.3494 15.86 25.1974 15.86C26.1454 15.86 26.9374 16.004 27.6334 16.304C29.0134 16.904 29.7814 18.008 29.7814 19.604C29.7814 20.324 29.6254 20.948 29.2894 21.5C28.6414 22.592 27.3094 23.228 25.1374 23.228ZM25.1974 21.56C27.0334 21.56 27.7054 20.876 27.7054 19.604C27.7054 18.224 26.9734 17.504 25.2214 17.504C23.5294 17.504 22.7014 18.188 22.7014 19.604C22.7014 20.912 23.4454 21.56 25.1974 21.56ZM37.325 21.44C36.869 22.532 35.873 23.228 34.325 23.228C32.189 23.228 31.037 21.944 31.037 19.88V16.112H33.101V19.472C33.101 20.84 33.653 21.56 35.165 21.56C36.485 21.56 37.181 20.72 37.181 19.352V16.112H39.257V23H37.505L37.325 21.44ZM45.6104 16.16V23H43.5464V16.16H40.4744V14.444H48.8264V16.16H45.6104ZM55.864 21.44C55.408 22.532 54.412 23.228 52.864 23.228C50.728 23.228 49.576 21.944 49.576 19.88V16.112H51.64V19.472C51.64 20.84 52.192 21.56 53.704 21.56C55.024 21.56 55.72 20.72 55.72 19.352V16.112H57.796V23H56.044L55.864 21.44ZM64.4509 23.204C62.8069 23.204 61.7869 22.772 61.2589 21.884L61.1389 23H59.3629V13.88H61.3549V17.36C61.9789 16.364 63.1309 15.884 64.5469 15.884C66.9229 15.884 68.3629 17.156 68.3629 19.604C68.3629 20.828 67.9189 21.704 67.1749 22.316C66.4309 22.916 65.4829 23.204 64.4509 23.204ZM63.7789 21.56C65.6149 21.56 66.2869 20.876 66.2869 19.604C66.2869 18.224 65.5549 17.504 63.8029 17.504C62.1949 17.504 61.2829 18.248 61.2829 19.604C61.2829 20.912 62.0749 21.56 63.7789 21.56ZM78.5288 20.948C77.7848 22.652 76.2008 23.228 73.9208 23.228C72.8288 23.228 71.9648 23.072 71.3048 22.784C69.9968 22.172 69.4808 21.092 69.4808 19.688C69.4808 18.992 69.6488 18.368 69.9848 17.792C70.6808 16.616 72.0128 15.86 74.0768 15.86C75.0368 15.86 75.8288 16.004 76.5248 16.304C77.8808 16.904 78.6128 18.008 78.6128 19.556V20.288H71.4128C71.6528 21.188 72.4208 21.656 74.0888 21.656C75.3488 21.656 75.9488 21.416 76.2848 20.948H78.5288ZM74.1368 17.42C72.6128 17.42 71.7488 17.936 71.4608 18.836H76.5968C76.3688 17.828 75.6128 17.42 74.1368 17.42ZM14.904 31.264V37H12.96V28.444H14.844L18.168 32.332L21.648 28.444H23.4V37H21.456V31.228L18.18 34.84H18.036L14.904 31.264ZM33.7281 34.948C32.9841 36.652 31.4001 37.228 29.1201 37.228C28.0281 37.228 27.1641 37.072 26.5041 36.784C25.1961 36.172 24.6801 35.092 24.6801 33.688C24.6801 32.992 24.8481 32.368 25.1841 31.792C25.8801 30.616 27.2121 29.86 29.2761 29.86C30.2361 29.86 31.0281 30.004 31.7241 30.304C33.0801 30.904 33.8121 32.008 33.8121 33.556V34.288H26.6121C26.8521 35.188 27.6201 35.656 29.2881 35.656C30.5481 35.656 31.1481 35.416 31.4841 34.948H33.7281ZM29.3361 31.42C27.8121 31.42 26.9481 31.936 26.6601 32.836H31.7961C31.5681 31.828 30.8121 31.42 29.3361 31.42ZM35.0462 37V30.112H36.8102L37.0382 32.032C37.4102 30.796 38.2502 30.04 39.8462 30.04H40.7222V32.032H39.7982C39.0782 32.032 38.5262 32.104 38.1422 32.284C37.3742 32.62 37.1222 33.364 37.1222 34.72V37H35.0462ZM50.5598 33.964C50.5118 34.612 50.3078 35.188 49.9598 35.668C49.2518 36.652 47.9318 37.228 45.8678 37.228C44.7758 37.228 43.8998 37.084 43.2278 36.784C41.9078 36.208 41.3558 35.104 41.3558 33.604C41.3558 32.836 41.5478 32.176 41.9198 31.612C42.6758 30.484 44.0798 29.86 45.9278 29.86C48.7118 29.86 50.3078 31.012 50.5598 33.052H48.3638C48.1838 32.02 47.4758 31.504 45.9518 31.504C44.2598 31.504 43.4318 32.188 43.4318 33.604C43.4318 34.912 44.1758 35.56 45.9278 35.56C47.5358 35.56 48.2078 34.996 48.3638 33.964H50.5598ZM53.6785 37H51.7105V27.88H53.6785V31.516C54.1945 30.508 55.1905 29.86 56.6665 29.86C57.3865 29.86 57.9985 29.992 58.5025 30.28C59.5105 30.832 60.0505 31.852 60.0505 33.232V37H57.9985V33.832C57.9985 33.364 57.9265 32.956 57.8185 32.608C57.5665 31.9 57.0025 31.492 55.9945 31.492C54.3985 31.492 53.6785 32.308 53.6785 33.928V37ZM65.6198 37.228C62.7878 37.228 61.3238 36.424 60.9758 34.72H63.3158C63.5438 35.392 64.1318 35.668 65.7278 35.668C67.2278 35.668 67.6598 35.368 67.6598 34.888C67.6598 34.66 67.5638 34.528 67.2158 34.444C66.8678 34.348 66.1838 34.3 65.0318 34.264C62.2958 34.18 61.2278 33.616 61.2278 32.248C61.2278 31.78 61.3598 31.372 61.6478 31.024C62.2118 30.304 63.3278 29.86 65.0798 29.86C67.6718 29.86 69.0758 30.592 69.5798 32.26H67.3718C67.1797 31.552 66.3398 31.336 65.0558 31.336C64.5518 31.336 64.1798 31.36 63.9038 31.444C63.3758 31.588 63.1958 31.828 63.1958 32.08C63.1958 32.284 63.2558 32.428 63.5918 32.536C63.9277 32.632 64.5758 32.692 65.7278 32.74C67.2998 32.8 68.2958 32.968 68.8718 33.304C69.4718 33.628 69.6758 34.12 69.6758 34.84C69.6758 36.22 68.3078 37.228 65.6198 37.228ZM72.7449 37H70.7769V27.88H72.7449V31.516C73.2609 30.508 74.2569 29.86 75.7329 29.86C76.4529 29.86 77.0649 29.992 77.5689 30.28C78.5769 30.832 79.1169 31.852 79.1169 33.232V37H77.0649V33.832C77.0649 33.364 76.9929 32.956 76.8849 32.608C76.6329 31.9 76.0689 31.492 75.0609 31.492C73.4649 31.492 72.7449 32.308 72.7449 33.928V37ZM89.439 34.948C88.695 36.652 87.111 37.228 84.831 37.228C83.739 37.228 82.875 37.072 82.215 36.784C80.907 36.172 80.391 35.092 80.391 33.688C80.391 32.992 80.559 32.368 80.895 31.792C81.591 30.616 82.923 29.86 84.987 29.86C85.947 29.86 86.739 30.004 87.435 30.304C88.791 30.904 89.523 32.008 89.523 33.556V34.288H82.323C82.563 35.188 83.331 35.656 84.999 35.656C86.259 35.656 86.859 35.416 87.195 34.948H89.439ZM85.047 31.42C83.523 31.42 82.659 31.936 82.371 32.836H87.507C87.279 31.828 86.523 31.42 85.047 31.42ZM90.816 37V27.88H92.868V37H90.816ZM97.8392 31.816L97.8272 37H95.8952V31.816H93.9992V30.112H95.8952V29.752C95.8952 29.032 95.9792 28.48 96.1592 28.06C96.5072 27.244 97.3112 26.944 98.8112 26.944H100.203V28.564H99.0032C98.7032 28.564 98.4632 28.588 98.2832 28.648C97.9472 28.756 97.8392 29.068 97.8392 29.74V30.112H100.203V31.816H97.8392Z" fill="#FF487F"/>
<path d="M143.006 85.212C141.43 85.2801 139.952 85.3311 138.573 85.3652C137.193 85.3992 135.958 85.4162 134.866 85.4162H131.331C127.25 85.4162 123.428 85.3482 119.864 85.212C116.78 85.1283 113.761 84.9935 110.806 84.8077C107.851 84.6218 105.701 84.3555 104.357 84.0088C102.838 83.6043 101.524 82.853 100.414 81.7549C99.3035 80.6569 98.5525 79.3482 98.1606 77.8288C97.8248 76.4846 97.5639 74.8728 97.3782 72.9935C97.1923 71.1141 97.0575 69.2844 96.9737 67.5046C96.8376 65.4733 96.7695 63.3819 96.7695 61.2303C96.7695 59.0787 96.8376 56.9873 96.9737 54.9561C97.0575 53.1762 97.1923 51.3465 97.3782 49.4672C97.5639 47.5878 97.8302 45.9762 98.177 44.6323C98.5815 43.1132 99.3328 41.7985 100.431 40.6884C101.529 39.5783 102.838 38.8273 104.357 38.4355C105.701 38.0997 107.851 37.8388 110.806 37.653C113.761 37.4671 116.78 37.3323 119.864 37.2486C123.424 37.1125 127.243 37.0444 131.321 37.0444C135.398 37.0444 139.217 37.1125 142.778 37.2486C145.861 37.3323 148.881 37.4671 151.836 37.653C154.791 37.8388 156.94 38.1051 158.284 38.4519C159.803 38.8564 161.118 39.6076 162.228 40.7057C163.338 41.8037 164.089 43.1125 164.481 44.6319C164.817 45.976 165.078 47.5878 165.264 49.4672C165.449 51.3465 165.584 53.1762 165.668 54.9561C165.804 57.0082 165.872 59.0889 165.872 61.1981V62.6516C164.789 62.1595 163.672 61.7996 162.521 61.5719C161.371 61.3442 160.192 61.2303 158.984 61.2303C154.211 61.2303 150.134 62.9161 146.755 66.2876C143.376 69.6591 141.686 73.7366 141.686 78.5202C141.686 79.7305 141.796 80.8917 142.016 82.0039C142.236 83.116 142.566 84.1854 143.006 85.212ZM124.411 71.5957L142.346 61.2303L124.411 50.8649V71.5957ZM155.507 88.8713V81.9611H148.597V75.0509H155.507V68.1406H162.417V75.0509H169.327V81.9611H162.417V88.8713H155.507Z" fill="#FF487F"/>
</g>
<path d="M15.23 53.15C14.53 53.15 13.99 53.05 13.56 52.85C12.72 52.45 12.35 51.67 12.31 50.6H13.35C13.38 51.69 13.94 52.28 15.24 52.28C15.63 52.28 15.94 52.22 16.19 52.1C16.69 51.86 16.91 51.46 16.91 51.02C16.91 50.71 16.82 50.47 16.63 50.31C16.25 49.99 15.62 49.86 14.94 49.74C14.36 49.62 13.79 49.49 13.33 49.22C12.87 48.94 12.58 48.5 12.58 47.75C12.58 47.4 12.68 47.08 12.85 46.77C13.23 46.17 13.95 45.77 15.05 45.77C16.82 45.77 17.68 46.6 17.75 47.97H16.74C16.69 47.07 16.16 46.6 15.03 46.6C14.03 46.6 13.56 47.12 13.56 47.74C13.56 48.03 13.66 48.25 13.83 48.4C14.19 48.69 14.81 48.8 15.48 48.95C16.07 49.07 16.66 49.21 17.12 49.49C17.59 49.77 17.89 50.22 17.89 51C17.89 51.39 17.79 51.75 17.59 52.07C17.19 52.73 16.41 53.15 15.23 53.15ZM24.4363 51.3C24.1063 52.48 23.1463 53.15 21.7263 53.15C19.8263 53.15 18.8763 52.03 18.8763 50.25V50.13C18.8763 49.53 18.9963 49.01 19.2263 48.55C19.6963 47.65 20.5763 47.13 21.7563 47.13C22.3863 47.13 22.9063 47.26 23.3063 47.53C24.1263 48.07 24.5163 48.98 24.5163 50.01V50.47H19.8363C19.9063 51.65 20.5863 52.33 21.7663 52.33C22.5963 52.33 23.1763 51.97 23.3863 51.3H24.4363ZM21.7663 47.92C20.6663 47.92 19.9663 48.59 19.8463 49.7H23.5462C23.4663 48.61 22.8663 47.92 21.7663 47.92ZM25.729 53V45.35H26.699V53H25.729ZM28.2778 53V45.35H29.2478V53H28.2778ZM37.0007 53.15C35.9307 53.15 35.2207 52.57 34.9007 51.71L34.8007 53H33.9907V45.35H34.9307V48.52C35.2807 47.69 35.9907 47.13 37.0507 47.13C37.5507 47.13 37.9807 47.25 38.3607 47.48C39.1207 47.94 39.5807 48.8 39.5807 50.06V50.19C39.5807 50.81 39.4707 51.34 39.2607 51.78C38.8407 52.66 38.0607 53.15 37.0007 53.15ZM36.7307 52.28C37.9207 52.28 38.5907 51.52 38.5907 50.18V50.07C38.5907 48.76 37.8407 47.96 36.7707 47.96C36.3907 47.96 36.0607 48.06 35.7807 48.23C35.2207 48.59 34.8907 49.24 34.8907 50.03V50.11C34.8907 51.42 35.5907 52.28 36.7307 52.28ZM40.7871 53V47.29H41.5771L41.7071 48.71C41.9471 47.76 42.5971 47.25 43.7771 47.25H44.1271V48.23H43.6471C43.1671 48.23 42.7771 48.3 42.5071 48.45C41.9471 48.76 41.7471 49.35 41.7471 50.33V53H40.7871ZM49.0775 51.58C48.6775 52.46 47.7975 53.15 46.5275 53.15C45.2975 53.15 44.6575 52.55 44.6575 51.63C44.6575 51.03 44.9375 50.55 45.3975 50.27C45.5575 50.16 45.7175 50.09 45.8875 50.02C46.2375 49.9 46.7175 49.8 47.4775 49.69C48.4875 49.54 49.0375 49.45 49.0375 48.91C49.0375 48.29 48.6275 47.9 47.5575 47.9C46.4275 47.9 45.8775 48.45 45.8275 49.25H44.8375C44.8675 48.83 44.9975 48.47 45.2075 48.15C45.6475 47.51 46.4275 47.13 47.5175 47.13C49.2975 47.13 49.9775 47.88 49.9775 49.06V53H49.1875L49.0775 51.58ZM46.8275 52.38C47.4875 52.38 48.0375 52.12 48.4275 51.7C48.8275 51.28 49.0475 50.78 49.0475 50.3V49.88C48.7975 50.09 48.3175 50.2 47.6875 50.31C46.8175 50.44 46.4475 50.54 46.1275 50.75C45.8575 50.92 45.7175 51.17 45.7175 51.51C45.7175 52.05 46.0775 52.38 46.8275 52.38ZM52.4116 53H51.4316V47.29H52.2516L52.3516 48.59C52.6616 47.71 53.3516 47.13 54.4416 47.13C55.9116 47.13 56.6716 48.08 56.6716 49.53V53H55.6916V49.75C55.6916 48.68 55.2616 47.98 54.1516 47.98C53.0216 47.98 52.4116 48.79 52.4116 50.01V53ZM62.5309 51.66C62.2109 52.52 61.4909 53.13 60.3809 53.13C59.8809 53.13 59.4509 53.02 59.0609 52.79C58.3009 52.32 57.8509 51.44 57.8509 50.18V50.05C57.8509 49.43 57.9609 48.91 58.1709 48.47C58.6109 47.6 59.4109 47.14 60.4409 47.14C61.4709 47.14 62.1709 47.64 62.5009 48.43V45.35H63.4409V53H62.6409L62.5309 51.66ZM60.6409 52.28C61.0309 52.28 61.3709 52.18 61.6509 52.01C62.2309 51.65 62.5409 50.99 62.5409 50.16V50.09C62.5409 49.66 62.4709 49.3 62.3209 48.98C62.0309 48.34 61.4709 47.96 60.7109 47.96C59.5009 47.96 58.8509 48.77 58.8509 50.07V50.17C58.8509 51.54 59.5909 52.28 60.6409 52.28ZM70.198 51.3C69.868 52.48 68.908 53.15 67.488 53.15C65.588 53.15 64.638 52.03 64.638 50.25V50.13C64.638 49.53 64.758 49.01 64.988 48.55C65.458 47.65 66.338 47.13 67.518 47.13C68.148 47.13 68.668 47.26 69.068 47.53C69.888 48.07 70.278 48.98 70.278 50.01V50.47H65.598C65.668 51.65 66.348 52.33 67.528 52.33C68.358 52.33 68.938 51.97 69.148 51.3H70.198ZM67.528 47.92C66.428 47.92 65.728 48.59 65.608 49.7H69.308C69.228 48.61 68.628 47.92 67.528 47.92ZM75.9586 51.66C75.6386 52.52 74.9186 53.13 73.8086 53.13C73.3086 53.13 72.8786 53.02 72.4886 52.79C71.7286 52.32 71.2786 51.44 71.2786 50.18V50.05C71.2786 49.43 71.3886 48.91 71.5986 48.47C72.0386 47.6 72.8386 47.14 73.8686 47.14C74.8986 47.14 75.5986 47.64 75.9286 48.43V45.35H76.8686V53H76.0686L75.9586 51.66ZM74.0686 52.28C74.4586 52.28 74.7986 52.18 75.0786 52.01C75.6586 51.65 75.9686 50.99 75.9686 50.16V50.09C75.9686 49.66 75.8986 49.3 75.7486 48.98C75.4586 48.34 74.8986 47.96 74.1386 47.96C72.9286 47.96 72.2786 48.77 72.2786 50.07V50.17C72.2786 51.54 73.0186 52.28 74.0686 52.28ZM84.6181 53.13C83.5681 53.13 82.8881 52.62 82.5381 51.82V54.99H81.5981V47.29H82.3981L82.5081 48.58C82.8481 47.72 83.5481 47.13 84.6481 47.13C85.1681 47.13 85.6081 47.25 85.9881 47.48C86.7481 47.96 87.1881 48.85 87.1881 50.12V50.25C87.1881 50.87 87.0781 51.38 86.8681 51.81C86.4281 52.68 85.6481 53.13 84.6181 53.13ZM84.3381 52.29C85.5281 52.29 86.2081 51.53 86.2081 50.23V50.12C86.2081 48.75 85.4681 47.97 84.3781 47.97C83.9981 47.97 83.6681 48.07 83.3881 48.24C82.8281 48.62 82.4981 49.27 82.4981 50.1V50.17C82.4981 51.43 83.1981 52.29 84.3381 52.29ZM88.4043 53V47.29H89.1943L89.3243 48.71C89.5643 47.76 90.2143 47.25 91.3943 47.25H91.7443V48.23H91.2643C90.7843 48.23 90.3943 48.3 90.1243 48.45C89.5643 48.76 89.3643 49.35 89.3643 50.33V53H88.4043ZM95.1347 53.15C93.3147 53.15 92.2747 52.08 92.2747 50.24V50.11C92.2747 49.47 92.4047 48.95 92.6447 48.49C93.1447 47.61 94.0347 47.13 95.1347 47.13C95.6947 47.13 96.1847 47.25 96.6147 47.49C97.4847 47.96 97.9947 48.85 97.9947 50.11V50.24C97.9947 50.86 97.8747 51.37 97.6447 51.81C97.1647 52.68 96.3047 53.15 95.1347 53.15ZM95.1347 52.28C96.3247 52.28 97.0047 51.52 97.0047 50.22V50.11C97.0047 48.78 96.2447 47.97 95.1347 47.97C94.0347 47.97 93.2647 48.73 93.2647 50.11V50.22C93.2647 51.52 93.9547 52.28 95.1347 52.28ZM103.713 51.66C103.393 52.52 102.673 53.13 101.563 53.13C101.062 53.13 100.633 53.02 100.243 52.79C99.4825 52.32 99.0325 51.44 99.0325 50.18V50.05C99.0325 49.43 99.1425 48.91 99.3525 48.47C99.7925 47.6 100.593 47.14 101.623 47.14C102.653 47.14 103.353 47.64 103.683 48.43V45.35H104.623V53H103.823L103.713 51.66ZM101.823 52.28C102.213 52.28 102.553 52.18 102.833 52.01C103.413 51.65 103.723 50.99 103.723 50.16V50.09C103.723 49.66 103.653 49.3 103.503 48.98C103.213 48.34 102.653 47.96 101.893 47.96C100.683 47.96 100.032 48.77 100.032 50.07V50.17C100.032 51.54 100.773 52.28 101.823 52.28ZM110.111 51.77C109.821 52.59 109.141 53.13 108.121 53.13C106.701 53.13 106.001 52.21 106.001 50.75V47.29H106.971V50.51C106.971 51.54 107.361 52.26 108.421 52.26C109.451 52.26 110.051 51.44 110.051 50.26V47.29H111.021V53H110.211L110.111 51.77ZM115.056 53.15C113.246 53.15 112.206 52.08 112.206 50.24V50.11C112.206 49.47 112.336 48.95 112.586 48.49C113.086 47.61 113.976 47.13 115.066 47.13C116.576 47.13 117.636 47.87 117.806 49.46V49.48H116.796V49.46C116.636 48.44 116.016 47.97 115.076 47.97C113.976 47.97 113.206 48.73 113.206 50.11V50.22C113.206 51.52 113.896 52.28 115.066 52.28C116.056 52.28 116.636 51.78 116.806 50.79V50.78H117.816V50.8C117.646 52.42 116.586 53.15 115.056 53.15ZM122.059 53H121.429C120.919 53 120.519 52.93 120.239 52.8C119.679 52.53 119.479 51.93 119.479 50.79V48.15H118.359V47.32H118.909C119.079 47.32 119.209 47.31 119.299 47.27C119.469 47.2 119.509 47.01 119.539 46.58C119.539 46.53 119.539 46.44 119.549 46.33C119.549 46.1 119.559 45.86 119.559 45.78H120.379V47.29H122.059V48.15H120.379V50.65C120.379 51.07 120.409 51.37 120.479 51.57C120.629 51.99 120.969 52.09 121.649 52.09H122.059V53ZM125.42 53.15C123.8 53.15 122.87 52.46 122.71 51.13H123.76C123.88 51.95 124.54 52.32 125.44 52.32C126.5 52.32 126.89 51.89 126.89 51.35C126.89 51.12 126.81 50.96 126.65 50.85C126.32 50.62 125.76 50.54 125.16 50.46C124.64 50.38 124.1 50.28 123.67 50.07C123.24 49.84 122.96 49.48 122.96 48.86C122.96 48.54 123.04 48.25 123.2 48C123.54 47.46 124.2 47.13 125.23 47.13C126.78 47.13 127.58 47.83 127.73 48.94H126.74C126.65 48.26 126.14 47.92 125.22 47.92C124.24 47.92 123.92 48.34 123.92 48.81C123.92 49.02 124 49.19 124.17 49.31C124.51 49.52 125.06 49.6 125.66 49.69C126.18 49.77 126.72 49.87 127.15 50.08C127.58 50.31 127.85 50.66 127.85 51.29C127.85 51.64 127.76 51.95 127.59 52.23C127.24 52.79 126.55 53.15 125.42 53.15Z" fill="white"/>
<defs>
<clipPath id="clip0_10091_32349">
<rect width="166" height="100" rx="15.05" fill="white"/>
</clipPath>
</defs>
</svg>
