<svg width="24" height="24" viewBox="0 0 24 24" fill="none" xmlns="http://www.w3.org/2000/svg">
<path fill-rule="evenodd" clip-rule="evenodd" d="M21 5C21 6.65685 19.6569 8 18 8C17.0309 8 16.1692 7.54053 15.6207 6.82756L8.79978 10.9201C8.9291 11.2552 9 11.6193 9 12C9 12.3807 8.9291 12.7448 8.79978 13.0799L15.6207 17.1724C16.1692 16.4595 17.0309 16 18 16C19.6569 16 21 17.3431 21 19C21 20.6569 19.6569 22 18 22C16.3431 22 15 20.6569 15 19C15 18.8532 15.0105 18.7089 15.0309 18.5678L7.92274 14.3029C7.40209 14.7381 6.73163 15 6 15C4.34315 15 3 13.6569 3 12C3 10.3431 4.34315 9 6 9C6.73163 9 7.40209 9.2619 7.92274 9.69707L15.0309 5.43218C15.0105 5.29106 15 5.14676 15 5C15 3.34315 16.3431 2 18 2C19.6569 2 21 3.34315 21 5Z" fill="white"/>
</svg>
